<svg xmlns="http://www.w3.org/2000/svg" width="1024" height="1024" viewBox="0 0 190 190">
  <rect width="190" height="190" rx="40" fill="#060608"/>

  <!-- Soft wide glow base — red -->
  <line x1="95" y1="95" x2="187" y2="3"   stroke="#E8192C" stroke-width="30" stroke-linecap="round" opacity="0.09"/>
  <line x1="95" y1="95" x2="3"   y2="187" stroke="#E8192C" stroke-width="30" stroke-linecap="round" opacity="0.09"/>
  <line x1="95" y1="95" x2="208" y2="30"  stroke="#E8192C" stroke-width="22" stroke-linecap="round" opacity="0.07"/>
  <line x1="95" y1="95" x2="-18" y2="160" stroke="#E8192C" stroke-width="22" stroke-linecap="round" opacity="0.07"/>
  <line x1="95" y1="95" x2="95"  y2="-35" stroke="#E8192C" stroke-width="20" stroke-linecap="round" opacity="0.07"/>
  <line x1="95" y1="95" x2="95"  y2="225" stroke="#E8192C" stroke-width="20" stroke-linecap="round" opacity="0.07"/>
  <line x1="95" y1="95" x2="225" y2="95"  stroke="#E8192C" stroke-width="18" stroke-linecap="round" opacity="0.06"/>
  <line x1="95" y1="95" x2="-35" y2="95"  stroke="#E8192C" stroke-width="18" stroke-linecap="round" opacity="0.06"/>
  <line x1="95" y1="95" x2="187" y2="187" stroke="#E8192C" stroke-width="16" stroke-linecap="round" opacity="0.06"/>
  <line x1="95" y1="95" x2="3"   y2="3"   stroke="#E8192C" stroke-width="16" stroke-linecap="round" opacity="0.06"/>
  <line x1="95" y1="95" x2="221" y2="129" stroke="#E8192C" stroke-width="14" stroke-linecap="round" opacity="0.05"/>
  <line x1="95" y1="95" x2="-31" y2="61"  stroke="#E8192C" stroke-width="14" stroke-linecap="round" opacity="0.05"/>
  <line x1="95" y1="95" x2="161" y2="-18" stroke="#E8192C" stroke-width="12" stroke-linecap="round" opacity="0.05"/>
  <line x1="95" y1="95" x2="29"  y2="208" stroke="#E8192C" stroke-width="12" stroke-linecap="round" opacity="0.05"/>

  <!-- Soft wide glow base — white -->
  <line x1="95" y1="95" x2="187" y2="3"   stroke="#FFFFFF" stroke-width="20" stroke-linecap="round" opacity="0.06"/>
  <line x1="95" y1="95" x2="3"   y2="187" stroke="#FFFFFF" stroke-width="20" stroke-linecap="round" opacity="0.06"/>
  <line x1="95" y1="95" x2="95"  y2="-35" stroke="#FFFFFF" stroke-width="14" stroke-linecap="round" opacity="0.05"/>
  <line x1="95" y1="95" x2="95"  y2="225" stroke="#FFFFFF" stroke-width="14" stroke-linecap="round" opacity="0.05"/>
  <line x1="95" y1="95" x2="225" y2="95"  stroke="#FFFFFF" stroke-width="12" stroke-linecap="round" opacity="0.04"/>
  <line x1="95" y1="95" x2="-35" y2="95"  stroke="#FFFFFF" stroke-width="12" stroke-linecap="round" opacity="0.04"/>

  <!-- Main red rays -->
  <line x1="95" y1="95" x2="187" y2="3"   stroke="#E8192C" stroke-width="7"   stroke-linecap="round" opacity="0.85"/>
  <line x1="95" y1="95" x2="3"   y2="187" stroke="#E8192C" stroke-width="7"   stroke-linecap="round" opacity="0.85"/>
  <line x1="95" y1="95" x2="208" y2="30"  stroke="#E8192C" stroke-width="5.5" stroke-linecap="round" opacity="0.72"/>
  <line x1="95" y1="95" x2="-18" y2="160" stroke="#E8192C" stroke-width="5.5" stroke-linecap="round" opacity="0.72"/>
  <line x1="95" y1="95" x2="221" y2="129" stroke="#E8192C" stroke-width="4.5" stroke-linecap="round" opacity="0.62"/>
  <line x1="95" y1="95" x2="-31" y2="61"  stroke="#E8192C" stroke-width="4.5" stroke-linecap="round" opacity="0.62"/>
  <line x1="95" y1="95" x2="129" y2="221" stroke="#E8192C" stroke-width="4"   stroke-linecap="round" opacity="0.58"/>
  <line x1="95" y1="95" x2="61"  y2="-31" stroke="#E8192C" stroke-width="4"   stroke-linecap="round" opacity="0.58"/>
  <line x1="95" y1="95" x2="208" y2="161" stroke="#E8192C" stroke-width="3.5" stroke-linecap="round" opacity="0.52"/>
  <line x1="95" y1="95" x2="-18" y2="29"  stroke="#E8192C" stroke-width="3.5" stroke-linecap="round" opacity="0.52"/>
  <line x1="95" y1="95" x2="161" y2="208" stroke="#E8192C" stroke-width="3"   stroke-linecap="round" opacity="0.48"/>
  <line x1="95" y1="95" x2="29"  y2="-18" stroke="#E8192C" stroke-width="3"   stroke-linecap="round" opacity="0.48"/>
  <line x1="95" y1="95" x2="221" y2="62"  stroke="#E8192C" stroke-width="2.5" stroke-linecap="round" opacity="0.44"/>
  <line x1="95" y1="95" x2="-31" y2="128" stroke="#E8192C" stroke-width="2.5" stroke-linecap="round" opacity="0.44"/>
  <line x1="95" y1="95" x2="62"  y2="221" stroke="#E8192C" stroke-width="2.5" stroke-linecap="round" opacity="0.42"/>
  <line x1="95" y1="95" x2="128" y2="-31" stroke="#E8192C" stroke-width="2.5" stroke-linecap="round" opacity="0.42"/>
  <line x1="95" y1="95" x2="-18" y2="208" stroke="#E8192C" stroke-width="2"   stroke-linecap="round" opacity="0.38"/>
  <line x1="95" y1="95" x2="208" y2="-18" stroke="#E8192C" stroke-width="2"   stroke-linecap="round" opacity="0.38"/>

  <!-- Main white rays -->
  <line x1="95" y1="95" x2="95"  y2="-35" stroke="#FFFFFF" stroke-width="6"   stroke-linecap="round" opacity="0.78"/>
  <line x1="95" y1="95" x2="95"  y2="225" stroke="#FFFFFF" stroke-width="6"   stroke-linecap="round" opacity="0.78"/>
  <line x1="95" y1="95" x2="225" y2="95"  stroke="#FFFFFF" stroke-width="5.5" stroke-linecap="round" opacity="0.72"/>
  <line x1="95" y1="95" x2="-35" y2="95"  stroke="#FFFFFF" stroke-width="5.5" stroke-linecap="round" opacity="0.72"/>
  <line x1="95" y1="95" x2="187" y2="187" stroke="#FFFFFF" stroke-width="4.5" stroke-linecap="round" opacity="0.62"/>
  <line x1="95" y1="95" x2="3"   y2="3"   stroke="#FFFFFF" stroke-width="4.5" stroke-linecap="round" opacity="0.62"/>
  <line x1="95" y1="95" x2="3"   y2="187" stroke="#FFFFFF" stroke-width="3.5" stroke-linecap="round" opacity="0.52"/>
  <line x1="95" y1="95" x2="187" y2="3"   stroke="#FFFFFF" stroke-width="3.5" stroke-linecap="round" opacity="0.52"/>
  <line x1="95" y1="95" x2="161" y2="-18" stroke="#FFFFFF" stroke-width="2.5" stroke-linecap="round" opacity="0.42"/>
  <line x1="95" y1="95" x2="29"  y2="208" stroke="#FFFFFF" stroke-width="2.5" stroke-linecap="round" opacity="0.42"/>
  <line x1="95" y1="95" x2="208" y2="162" stroke="#FFFFFF" stroke-width="2"   stroke-linecap="round" opacity="0.36"/>
  <line x1="95" y1="95" x2="-18" y2="28"  stroke="#FFFFFF" stroke-width="2"   stroke-linecap="round" opacity="0.36"/>

  <!-- Thin crisp red rays -->
  <line x1="95" y1="95" x2="187" y2="3"   stroke="#FF6070" stroke-width="1.5" stroke-linecap="round" opacity="0.95"/>
  <line x1="95" y1="95" x2="3"   y2="187" stroke="#FF6070" stroke-width="1.5" stroke-linecap="round" opacity="0.95"/>
  <line x1="95" y1="95" x2="208" y2="30"  stroke="#FF4050" stroke-width="1.2" stroke-linecap="round" opacity="0.85"/>
  <line x1="95" y1="95" x2="-18" y2="160" stroke="#FF4050" stroke-width="1.2" stroke-linecap="round" opacity="0.85"/>
  <line x1="95" y1="95" x2="221" y2="129" stroke="#E8192C" stroke-width="1"   stroke-linecap="round" opacity="0.78"/>
  <line x1="95" y1="95" x2="-31" y2="61"  stroke="#E8192C" stroke-width="1"   stroke-linecap="round" opacity="0.78"/>
  <line x1="95" y1="95" x2="129" y2="221" stroke="#E8192C" stroke-width="1"   stroke-linecap="round" opacity="0.72"/>
  <line x1="95" y1="95" x2="61"  y2="-31" stroke="#E8192C" stroke-width="1"   stroke-linecap="round" opacity="0.72"/>
  <line x1="95" y1="95" x2="208" y2="161" stroke="#E8192C" stroke-width="1"   stroke-linecap="round" opacity="0.65"/>
  <line x1="95" y1="95" x2="-18" y2="29"  stroke="#E8192C" stroke-width="1"   stroke-linecap="round" opacity="0.65"/>
  <line x1="95" y1="95" x2="221" y2="62"  stroke="#E8192C" stroke-width="1"   stroke-linecap="round" opacity="0.6"/>
  <line x1="95" y1="95" x2="-31" y2="128" stroke="#E8192C" stroke-width="1"   stroke-linecap="round" opacity="0.6"/>
  <line x1="95" y1="95" x2="-18" y2="208" stroke="#E8192C" stroke-width="1"   stroke-linecap="round" opacity="0.5"/>
  <line x1="95" y1="95" x2="208" y2="-18" stroke="#E8192C" stroke-width="1"   stroke-linecap="round" opacity="0.5"/>

  <!-- Thin crisp white rays -->
  <line x1="95" y1="95" x2="95"  y2="-35" stroke="#FFFFFF" stroke-width="1.5" stroke-linecap="round" opacity="0.9"/>
  <line x1="95" y1="95" x2="95"  y2="225" stroke="#FFFFFF" stroke-width="1.5" stroke-linecap="round" opacity="0.9"/>
  <line x1="95" y1="95" x2="225" y2="95"  stroke="#FFFFFF" stroke-width="1.3" stroke-linecap="round" opacity="0.82"/>
  <line x1="95" y1="95" x2="-35" y2="95"  stroke="#FFFFFF" stroke-width="1.3" stroke-linecap="round" opacity="0.82"/>
  <line x1="95" y1="95" x2="187" y2="187" stroke="#FFFFFF" stroke-width="1.1" stroke-linecap="round" opacity="0.72"/>
  <line x1="95" y1="95" x2="3"   y2="3"   stroke="#FFFFFF" stroke-width="1.1" stroke-linecap="round" opacity="0.72"/>
  <line x1="95" y1="95" x2="3"   y2="187" stroke="#FFFFFF" stroke-width="1"   stroke-linecap="round" opacity="0.62"/>
  <line x1="95" y1="95" x2="187" y2="3"   stroke="#FFFFFF" stroke-width="1"   stroke-linecap="round" opacity="0.62"/>
  <line x1="95" y1="95" x2="161" y2="-18" stroke="#FFFFFF" stroke-width="1"   stroke-linecap="round" opacity="0.52"/>
  <line x1="95" y1="95" x2="29"  y2="208" stroke="#FFFFFF" stroke-width="1"   stroke-linecap="round" opacity="0.52"/>
  <line x1="95" y1="95" x2="208" y2="162" stroke="#FFFFFF" stroke-width="1"   stroke-linecap="round" opacity="0.44"/>
  <line x1="95" y1="95" x2="-18" y2="28"  stroke="#FFFFFF" stroke-width="1"   stroke-linecap="round" opacity="0.44"/>

  <!-- Horizontal flare streak -->
  <line x1="-8"  y1="94" x2="198" y2="96" stroke="#FFFFFF" stroke-width="1"   stroke-linecap="round" opacity="0.1"/>
  <line x1="20"  y1="95" x2="170" y2="95" stroke="#FFFFFF" stroke-width="0.5" stroke-linecap="round" opacity="0.14"/>

  <!-- Center glow — red halo -->
  <circle cx="95" cy="95" r="82" fill="#8B0010" opacity="0.1"/>
  <circle cx="95" cy="95" r="64" fill="#A8001A" opacity="0.14"/>
  <circle cx="95" cy="95" r="48" fill="#C0001E" opacity="0.18"/>
  <circle cx="95" cy="95" r="35" fill="#D80020" opacity="0.22"/>
  <circle cx="95" cy="95" r="25" fill="#E8192C" opacity="0.28"/>

  <!-- Center glow — white hot core -->
  <circle cx="95" cy="95" r="18" fill="#FF8090" opacity="0.35"/>
  <circle cx="95" cy="95" r="13" fill="#FFCCCC" opacity="0.5"/>
  <circle cx="95" cy="95" r="9"  fill="#FFEAEA" opacity="0.7"/>
  <circle cx="95" cy="95" r="6"  fill="#FFF5F5" opacity="0.88"/>
  <circle cx="95" cy="95" r="3.5" fill="#FFFFFF" opacity="0.96"/>
  <circle cx="95" cy="95" r="1.8" fill="#FFFFFF"/>

  <!-- Satellite silhouette -->
  <rect x="88.5" y="91.5" width="13"  height="7"  rx="1.5" fill="#FFFFFF" opacity="0.9"/>
  <rect x="77"   y="93.5" width="10"  height="4"  rx="1"   fill="#FFFFFF" opacity="0.76"/>
  <rect x="103"  y="93.5" width="10"  height="4"  rx="1"   fill="#FFFFFF" opacity="0.76"/>
  <line x1="95" y1="98.5" x2="95" y2="104.5" stroke="#FFFFFF" stroke-width="1.5" stroke-linecap="round" opacity="0.72"/>
  <path d="M 84,104 Q 95,98 106,104" stroke="#FFFFFF" stroke-width="1.5" fill="none" stroke-linecap="round" opacity="0.62"/>
</svg>
